<?xml version="1.0" encoding="UTF-8" standalone="no"?>
<svg
   xmlns:dc="http://purl.org/dc/elements/1.1/"
   xmlns:cc="http://creativecommons.org/ns#"
   xmlns:rdf="http://www.w3.org/1999/02/22-rdf-syntax-ns#"
   xmlns:svg="http://www.w3.org/2000/svg"
   xmlns="http://www.w3.org/2000/svg"
   version="1.1"
   id="Layer_1"
   x="0px"
   y="0px"
   viewBox="0 0 388.20763 92.50719"
   xml:space="preserve"
   width="388.20761"
   height="92.507187"><metadata
   id="metadata174"><rdf:RDF><cc:Work
       rdf:about=""><dc:format>image/svg+xml</dc:format><dc:type
         rdf:resource="http://purl.org/dc/dcmitype/StillImage" /><dc:title></dc:title></cc:Work></rdf:RDF></metadata><defs
   id="defs172" />
<style
   type="text/css"
   id="style128">
	.st0{fill:#2DBCAF;}
</style>
<g
   id="g167"
   transform="translate(-1.1924608,-4.4106964)">
	<g
   id="g136"
   style="fill:#00c9ff;fill-opacity:1"
   transform="matrix(0.92616362,0,0,0.83882989,1.1924608,5.3022773)">
		<g
   id="g134"
   style="fill:#00c9ff;fill-opacity:1">
			<g
   id="g132"
   style="fill:#00c9ff;fill-opacity:1">
				<path
   class="st0"
   d="M 15.5,23.2 C 15.1,23.2 15,23 15.2,22.7 L 17.3,20 c 0.2,-0.3 0.7,-0.5 1.1,-0.5 h 35.7 c 0.4,0 0.5,0.3 0.3,0.6 l -1.7,2.6 c -0.2,0.3 -0.7,0.6 -1,0.6 z"
   id="path130"
   style="fill:#00c9ff;fill-opacity:1" />
			</g>
		</g>
	</g>
	<g
   id="g144"
   style="fill:#00c9ff;fill-opacity:1"
   transform="matrix(0.92616362,0,0,0.83882989,1.1924608,5.3022773)">
		<g
   id="g142"
   style="fill:#00c9ff;fill-opacity:1">
			<g
   id="g140"
   style="fill:#00c9ff;fill-opacity:1">
				<path
   class="st0"
   d="M 0.4,32.4 C 0,32.4 -0.1,32.2 0.1,31.9 l 2.1,-2.7 c 0.2,-0.3 0.7,-0.5 1.1,-0.5 h 45.6 c 0.4,0 0.6,0.3 0.5,0.6 l -0.8,2.4 c -0.1,0.4 -0.5,0.6 -0.9,0.6 z"
   id="path138"
   style="fill:#00c9ff;fill-opacity:1" />
			</g>
		</g>
	</g>
	<g
   id="g152"
   style="fill:#00c9ff;fill-opacity:1"
   transform="matrix(0.92616362,0,0,0.83882989,1.1924608,5.3022773)">
		<g
   id="g150"
   style="fill:#00c9ff;fill-opacity:1">
			<g
   id="g148"
   style="fill:#00c9ff;fill-opacity:1">
				<path
   class="st0"
   d="m 24.6,41.6 c -0.4,0 -0.5,-0.3 -0.3,-0.6 l 1.4,-2.5 c 0.2,-0.3 0.6,-0.6 1,-0.6 h 20 c 0.4,0 0.6,0.3 0.6,0.7 L 47.1,41 c 0,0.4 -0.4,0.7 -0.7,0.7 z"
   id="path146"
   style="fill:#00c9ff;fill-opacity:1" />
			</g>
		</g>
	</g>
	<g
   id="g165"
   transform="matrix(0.92616362,0,0,0.83882989,4.8354619,7.7582087)">
		
	<g
   style="font-style:normal;font-variant:normal;font-weight:normal;font-stretch:normal;font-size:69.3333px;line-height:1.25;font-family:'Nokia Pure Headline';-inkscape-font-specification:'Nokia Pure Headline weight=255';fill:#000000;fill-opacity:1;stroke:none"
   id="text178"
   aria-label="gNMI Client"><path
     id="path2088"
     style="font-style:italic;font-variant:normal;font-weight:bold;font-stretch:normal;font-family:'Nokia Pure Text';-inkscape-font-specification:'Nokia Pure Text Bold';fill:#124191;fill-opacity:1"
     d="m 81.201356,19.582628 q 1.178666,1.178667 1.594665,2.981332 0.485334,1.733333 0.138667,3.327999 -0.624,3.327998 -2.634665,5.615997 -1.941333,2.218665 -4.506665,3.605331 -2.565332,1.317333 -5.338664,1.941333 -2.703998,0.554666 -4.85333,0.554666 -1.248,0 -3.466665,-0.277333 -2.149332,-0.277333 -4.090665,-1.178666 -0.554666,0.485333 -0.901333,1.317332 -0.346666,0.762667 -0.485333,1.386666 -0.346666,1.594666 0.554667,2.565332 0.970666,0.901333 4.298664,1.04 l 7.210663,0.277333 q 3.050665,0.138667 5.477331,0.693333 2.426665,0.485333 3.951998,1.663999 1.594665,1.109333 2.149332,2.981332 0.623999,1.802666 0.06933,4.506664 -0.485333,2.634666 -2.149332,4.853331 -1.594666,2.287999 -4.437331,3.951998 -2.773332,1.663999 -6.794663,2.565332 -3.951998,0.970666 -9.221329,0.970666 -2.218666,0 -4.853331,-0.416 -2.565332,-0.346666 -4.783997,-1.455999 -2.149333,-1.109333 -3.327999,-3.119998 -1.178666,-1.941333 -0.554666,-5.061331 0.485333,-2.703999 2.149332,-4.922664 1.663999,-2.149332 3.674665,-3.466665 -1.178666,-1.109333 -1.525333,-2.426665 -0.346666,-1.386666 0,-3.119999 0.485333,-2.426665 2.010666,-4.437331 1.594666,-2.010665 3.327998,-3.397331 -1.594666,-1.594666 -2.079999,-3.674665 -0.415999,-2.149332 0,-4.298665 0.693333,-3.466665 2.634666,-5.823997 1.941332,-2.426665 4.506664,-3.882664 2.634665,-1.456 5.477331,-2.079999 2.842665,-0.693333 5.407997,-0.693333 1.871999,0 3.189331,0.138666 1.386666,0.138667 2.426666,0.346667 1.109333,0.138666 2.010666,0.277333 0.901332,0.138667 1.871999,0.138667 h 8.805328 l -1.317332,6.378663 h -1.04 q -1.039999,0 -2.287999,-0.06933 -1.178666,-0.138667 -2.287998,-0.277334 z M 61.025366,49.88128 q -1.455999,-0.06933 -3.397332,-0.208 -1.871999,-0.138667 -3.050665,-0.624 -0.693333,0.832 -1.247999,1.733332 -0.554666,0.970667 -0.832,2.218666 -0.346666,1.594666 0.138667,2.565332 0.554666,1.039999 1.594666,1.594666 1.039999,0.554666 2.495999,0.762666 1.525332,0.208 3.119998,0.208 5.68533,0 8.181329,-1.247999 2.495999,-1.248 2.981332,-3.466665 0.346666,-1.802666 -0.762666,-2.565332 -1.109333,-0.762667 -3.258665,-0.832 z m 13.03466,-24.751988 q 0.346666,-1.663999 0,-2.773332 -0.277333,-1.178666 -1.109333,-1.871999 -0.762666,-0.693333 -1.871999,-0.970666 -1.109333,-0.346666 -2.357332,-0.346666 -1.247999,0 -2.495999,0.346666 -1.247999,0.277333 -2.357332,0.970666 -1.039999,0.693333 -1.871999,1.871999 -0.762666,1.109333 -1.109333,2.773332 -0.277333,1.663999 0,2.842666 0.346667,1.109332 1.109333,1.802665 0.832,0.693333 1.941332,0.970666 1.109333,0.277334 2.357333,0.277334 1.247999,0 2.495998,-0.277334 1.248,-0.277333 2.287999,-0.901332 1.109333,-0.693333 1.871999,-1.802666 0.762666,-1.178666 1.109333,-2.911999 z" /><path
     id="path2090"
     style="font-style:italic;font-variant:normal;font-weight:bold;font-stretch:normal;font-family:'Nokia Pure Text';-inkscape-font-specification:'Nokia Pure Text Bold';fill:#124191;fill-opacity:1"
     d="m 102.95034,14.521298 -6.794659,33.973316 h -9.221329 l 9.775995,-48.74130866 h 9.775993 l 12.48,33.27998266 6.65599,-33.27998266 h 9.22133 L 125.06767,48.494614 h -9.01333 z" /><path
     id="path2092"
     style="font-style:italic;font-variant:normal;font-weight:bold;font-stretch:normal;font-family:'Nokia Pure Text';-inkscape-font-specification:'Nokia Pure Text Bold';fill:#124191;fill-opacity:1"
     d="m 191.36871,-0.24669466 -9.776,48.74130866 h -9.22132 l 6.58666,-32.933317 -14.90666,21.354656 h -7.21066 l -5.89333,-20.522656 -6.448,32.101317 h -9.22133 l 9.776,-48.74130866 h 10.39999 l 7.34933,26.83198666 18.09599,-26.83198666 z" /><path
     id="path2094"
     style="font-style:italic;font-variant:normal;font-weight:bold;font-stretch:normal;font-family:'Nokia Pure Text';-inkscape-font-specification:'Nokia Pure Text Bold';fill:#124191;fill-opacity:1"
     d="m 201.65821,48.494614 h -9.776 l 9.776,-48.74130866 h 9.77599 z" /><path
     id="path2096"
     style="font-style:italic;font-variant:normal;font-weight:bold;font-stretch:normal;font-family:'Nokia Pure Text';-inkscape-font-specification:'Nokia Pure Text Bold';fill:#124191;fill-opacity:1"
     d="m 258.7336,7.2413015 q -3.328,0 -6.032,1.386666 -2.704,1.3173326 -4.784,3.6746645 -2.01066,2.287999 -3.39733,5.338664 -1.38666,3.050665 -2.08,6.447997 -0.69333,3.466665 -0.624,6.51733 0.0693,2.981332 1.10934,5.199997 1.04,2.218666 3.12,3.466665 2.07999,1.247999 5.40799,1.247999 1.73334,0 3.536,-0.277333 1.80267,-0.346666 3.46667,-0.831999 1.66399,-0.554667 2.98133,-1.109333 1.31733,-0.624 2.14933,-1.178666 l 2.35733,6.794663 q -3.328,2.287999 -7.90399,3.743998 -4.50667,1.455999 -9.568,1.455999 -5.2,0 -8.87466,-1.733332 -3.60533,-1.733333 -5.616,-4.922664 -1.94133,-3.258665 -2.35733,-7.903996 -0.416,-4.645331 0.69333,-10.469328 1.10934,-5.477331 3.46667,-10.053328 2.35733,-4.6453313 5.82399,-7.9733296 3.46667,-3.3279983 7.97333,-5.19999729 4.576,-1.87199901 9.984,-1.87199901 4.992,0 8.52799,1.45599922 3.60534,1.38666598 5.96267,3.88266468 l -5.616,6.794663 Q 267.26159,9.7373002 264.83493,8.4893009 262.4776,7.2413015 258.7336,7.2413015 Z" /><path
     id="path2098"
     style="font-style:italic;font-variant:normal;font-weight:bold;font-stretch:normal;font-family:'Nokia Pure Text';-inkscape-font-specification:'Nokia Pure Text Bold';fill:#124191;fill-opacity:1"
     d="m 281.73276,48.494614 h -9.29067 l 10.4,-51.9999736 h 9.29066 z" /><path
     id="path2100"
     style="font-style:italic;font-variant:normal;font-weight:bold;font-stretch:normal;font-family:'Nokia Pure Text';-inkscape-font-specification:'Nokia Pure Text Bold';fill:#124191;fill-opacity:1"
     d="m 297.86141,13.550632 h 9.29067 l -7.00267,34.943982 h -9.29066 z m 12.272,-11.9253276 q -0.48534,2.4266654 -2.21867,4.0213313 -1.73333,1.5946658 -4.16,1.5946658 -2.42666,0 -3.53599,-1.5946658 -1.10934,-1.6639992 -0.624,-4.0213313 0.48533,-2.35733214 2.21866,-3.951998 1.73333,-1.6639991 4.16,-1.6639991 2.42666,0 3.536,1.5946658 1.10933,1.59466586 0.624,4.0213313 z" /><path
     id="path2102"
     style="font-style:italic;font-variant:normal;font-weight:bold;font-stretch:normal;font-family:'Nokia Pure Text';-inkscape-font-specification:'Nokia Pure Text Bold';fill:#124191;fill-opacity:1"
     d="m 327.92606,41.630617 q 3.39734,0 5.75467,-0.485333 2.42666,-0.554666 3.67466,-0.901333 l 0.90134,6.51733 q -1.52534,0.762666 -4.92267,1.733333 -3.328,0.970666 -8.18133,0.970666 -8.73599,0 -12.27199,-4.991998 -3.46667,-4.991997 -1.73333,-13.658659 0.832,-4.090665 2.56533,-7.418663 1.73333,-3.397332 4.29866,-5.754664 2.63467,-2.426665 5.96267,-3.674665 3.39733,-1.317332 7.48799,-1.317332 3.67467,0 6.30933,1.109332 2.704,1.04 4.22933,3.327999 1.52534,2.287999 1.80267,5.962663 0.27733,3.674665 -0.76267,8.874662 l -0.416,1.872 h -23.01865 q -0.27733,3.327998 1.52533,5.615997 1.872,2.218665 6.79466,2.218665 z m 7.28,-14.282659 q 0.416,-3.605332 -0.69333,-5.407997 -1.04,-1.871999 -4.576,-1.871999 -3.536,0 -5.75466,2.010665 -2.21867,1.941333 -3.25867,5.269331 z" /><path
     id="path2104"
     style="font-style:italic;font-variant:normal;font-weight:bold;font-stretch:normal;font-family:'Nokia Pure Text';-inkscape-font-specification:'Nokia Pure Text Bold';fill:#124191;fill-opacity:1"
     d="m 356.3408,48.494614 h -9.29066 l 7.00266,-34.943982 h 8.45866 l -0.624,4.645331 q 0.69334,-0.901333 1.73334,-1.871999 1.10933,-0.970667 2.49599,-1.802666 1.38667,-0.832 3.12,-1.317333 1.80267,-0.554666 3.88267,-0.554666 6.65599,0 8.73599,3.674665 2.14933,3.605331 0.90134,9.983994 l -4.43734,22.186656 h -9.29066 l 4.29867,-21.631989 q 0.76266,-3.605332 -0.55467,-4.922664 -1.248,-1.317333 -3.46666,-1.317333 -2.288,0 -3.952,0.901333 -1.59467,0.901333 -2.704,2.495999 -1.10933,1.594665 -1.872,3.743998 -0.69333,2.079999 -1.17867,4.437331 z" /><path
     id="path2106"
     style="font-style:italic;font-variant:normal;font-weight:bold;font-stretch:normal;font-family:'Nokia Pure Text';-inkscape-font-specification:'Nokia Pure Text Bold';fill:#124191;fill-opacity:1"
     d="m 405.86319,41.353284 q 1.456,0 2.496,-0.138667 1.10933,-0.138666 1.94133,-0.277333 l -0.90133,7.487996 q -0.97067,0.208 -2.98133,0.485333 -1.94134,0.277334 -4.576,0.277334 -6.51733,0 -8.736,-2.981332 -2.14933,-3.050665 -1.10933,-8.181329 l 3.328,-16.639992 h -6.30933 l 1.59466,-7.834662 h 6.30933 l 1.73334,-8.8746625 9.70666,-2.0799989 -2.14933,10.9546614 h 9.01333 l -1.59467,7.834662 h -9.01333 l -2.98133,15.114659 q -0.624,3.050665 0.55467,3.951998 1.24799,0.901333 3.67466,0.901333 z" /></g><g
   style="font-style:normal;font-variant:normal;font-weight:normal;font-stretch:normal;font-size:36.3052px;line-height:1.25;font-family:'Nokia Pure Headline Ultra Light';-inkscape-font-specification:'Nokia Pure Headline Ultra Light, ';fill:#000000;fill-opacity:1;stroke:none;stroke-width:1.13454"
   id="text1501"
   transform="scale(0.95168469,1.0507682)"
   aria-label="Get / Set / Subscribe"><path
     id="path2109"
     style="font-style:normal;font-variant:normal;font-weight:normal;font-stretch:normal;font-family:'Nokia Pure Headline Ultra Light';-inkscape-font-specification:'Nokia Pure Headline Ultra Light, ';fill:#001135;fill-opacity:1;stroke-width:1.13454"
     d="m 76.191706,86.814521 q 0,3.267468 0.689799,5.518391 0.689799,2.250922 1.960481,3.630519 1.270682,1.343293 3.085942,1.960481 1.81526,0.580883 4.066182,0.580883 0.689799,0 1.452208,-0.07261 0.762409,-0.108916 1.488513,-0.254136 0.726104,-0.181526 1.343292,-0.363052 0.617189,-0.181526 1.052851,-0.363052 v -9.148911 h -6.062968 v -1.306987 h 7.515176 v 11.073086 q -0.326747,0.217831 -1.016545,0.544578 -0.653494,0.290441 -1.597429,0.580883 -0.943935,0.290442 -2.105702,0.471968 -1.161766,0.217831 -2.505058,0.217831 -5.37317,0 -8.16867,-3.231163 -2.759195,-3.267468 -2.759195,-9.838709 0,-2.86811 0.653493,-5.336864 0.689799,-2.468753 2.033092,-4.284013 1.343292,-1.81526 3.340078,-2.831806 1.996786,-1.016545 4.647065,-1.016545 2.396143,0 4.138793,0.544578 1.742649,0.508272 3.194857,1.670039 l -0.762409,1.198071 Q 91.5125,76.46754 90.967922,76.104488 90.459649,75.741436 89.69724,75.450994 q -0.762409,-0.326747 -1.81526,-0.544578 -1.05285,-0.217831 -2.432448,-0.217831 -1.924176,0 -3.594215,0.689799 -1.670039,0.653493 -2.940721,2.142006 -1.270682,1.452208 -1.996786,3.775741 -0.726104,2.287228 -0.726104,5.51839 z" /><path
     id="path2111"
     style="font-style:normal;font-variant:normal;font-weight:normal;font-stretch:normal;font-family:'Nokia Pure Headline Ultra Light';-inkscape-font-specification:'Nokia Pure Headline Ultra Light, ';fill:#001135;fill-opacity:1;stroke-width:1.13454"
     d="m 110.22329,98.46849 q -0.65349,0.435662 -2.03309,0.871325 -1.3796,0.435662 -3.19486,0.435662 -2.1057,0 -3.66682,-0.653493 -1.561126,-0.689799 -2.613977,-1.887871 -1.016545,-1.234376 -1.524818,-2.940721 -0.508273,-1.742649 -0.508273,-3.884656 0,-2.178312 0.544578,-3.920961 0.544578,-1.74265 1.524819,-2.940722 0.98024,-1.234376 2.396141,-1.88787 1.4159,-0.689799 3.15855,-0.689799 1.59743,0 2.90442,0.544578 1.34329,0.544578 2.28723,1.706345 0.98024,1.125461 1.52482,2.977026 0.54457,1.81526 0.54457,4.356624 v 0.326747 H 98.097355 q 0.181526,3.594214 1.778955,5.591 1.59743,1.996786 5.19164,1.996786 1.48852,0 2.68659,-0.326747 1.19807,-0.363052 2.03309,-0.762409 z m -0.10891,-8.858468 q -0.0726,-1.706345 -0.43567,-3.049637 -0.36305,-1.379598 -1.08915,-2.323533 -0.6898,-0.943935 -1.77896,-1.452208 -1.05285,-0.508273 -2.54136,-0.508273 -2.72289,0 -4.356625,1.924176 -1.597429,1.924176 -1.81526,5.409475 z" /><path
     id="path2113"
     style="font-style:normal;font-variant:normal;font-weight:normal;font-stretch:normal;font-family:'Nokia Pure Headline Ultra Light';-inkscape-font-specification:'Nokia Pure Headline Ultra Light, ';fill:#001135;fill-opacity:1;stroke-width:1.13454"
     d="m 117.15929,82.712034 h -3.77575 v -1.270682 h 3.77575 v -5.409475 l 1.37959,-0.363052 v 5.772527 h 5.51839 v 1.270682 h -5.51839 v 11.254611 q 0,1.343293 0.25414,2.214618 0.25414,0.835019 0.76241,1.343292 0.50827,0.471968 1.27068,0.653494 0.79871,0.181526 1.85157,0.181526 0.54457,0 1.4522,-0.181526 l 0.18153,1.161766 q -0.29044,0.108915 -0.94394,0.181526 -0.61718,0.108915 -1.34329,0.108915 -1.3796,0 -2.32353,-0.363052 -0.90763,-0.399357 -1.48851,-1.089155 -0.54458,-0.689799 -0.79872,-1.633734 -0.25413,-0.943936 -0.25413,-2.033092 z" /><path
     id="path2115"
     style="font-style:normal;font-variant:normal;font-weight:normal;font-stretch:normal;font-family:'Nokia Pure Headline Ultra Light';-inkscape-font-specification:'Nokia Pure Headline Ultra Light, ';fill:#001135;fill-opacity:1;stroke-width:1.13454"
     d="m 137.34838,101.15507 h -1.4159 L 147.2597,72.219831 h 1.4159 z" /><path
     id="path2117"
     style="font-style:normal;font-variant:normal;font-weight:normal;font-stretch:normal;font-family:'Nokia Pure Headline Ultra Light';-inkscape-font-specification:'Nokia Pure Headline Ultra Light, ';fill:#001135;fill-opacity:1;stroke-width:1.13454"
     d="m 174.72061,76.394929 q -0.98024,-0.617188 -2.46875,-1.089156 -1.45221,-0.471967 -3.41269,-0.471967 -3.01333,0 -4.61076,1.452208 -1.56113,1.415902 -1.56113,3.70313 0,1.089156 0.25414,1.851565 0.25414,0.762409 0.87132,1.379598 0.61719,0.580883 1.59743,1.089156 1.01655,0.508272 2.50506,1.05285 l 2.17831,0.76241 q 3.12225,1.089156 4.46554,2.759195 1.3796,1.670039 1.3796,4.102487 0,1.379598 -0.50827,2.613974 -0.50828,1.234377 -1.52482,2.214618 -1.01655,0.943935 -2.57767,1.524818 -1.52482,0.544578 -3.59421,0.544578 -1.30699,0 -2.46876,-0.217831 -1.12546,-0.217832 -2.1057,-0.544578 -0.94393,-0.326747 -1.70634,-0.689799 -0.72611,-0.363052 -1.16177,-0.653494 l 0.65349,-1.343292 q 0.54458,0.326747 1.16177,0.689799 0.65349,0.363052 1.45221,0.653493 0.83502,0.290442 1.85156,0.508273 1.05285,0.181526 2.35984,0.181526 1.34329,0 2.54136,-0.290441 1.19808,-0.290442 2.10571,-0.90763 0.90763,-0.653494 1.4522,-1.67004 0.54458,-1.016545 0.54458,-2.468753 0,-2.178312 -1.30698,-3.521604 -1.30699,-1.343293 -3.81205,-2.142007 l -1.92418,-0.617188 q -3.12224,-1.052851 -4.68337,-2.613975 -1.52482,-1.561123 -1.52482,-4.247708 0,-1.234377 0.43567,-2.396143 0.43566,-1.198072 1.37959,-2.105702 0.94394,-0.943935 2.43245,-1.488513 1.48852,-0.580883 3.59422,-0.580883 0.76241,0 1.59743,0.145221 0.87132,0.108915 1.70634,0.326747 0.87133,0.217831 1.63373,0.544578 0.76241,0.290441 1.3796,0.653493 z" /><path
     id="path2119"
     style="font-style:normal;font-variant:normal;font-weight:normal;font-stretch:normal;font-family:'Nokia Pure Headline Ultra Light';-inkscape-font-specification:'Nokia Pure Headline Ultra Light, ';fill:#001135;fill-opacity:1;stroke-width:1.13454"
     d="m 192.54816,98.46849 q -0.65349,0.435662 -2.03309,0.871325 -1.3796,0.435662 -3.19486,0.435662 -2.1057,0 -3.66682,-0.653493 -1.56113,-0.689799 -2.61398,-1.887871 -1.01654,-1.234376 -1.52482,-2.940721 -0.50827,-1.742649 -0.50827,-3.884656 0,-2.178312 0.54458,-3.920961 0.54458,-1.74265 1.52482,-2.940722 0.98024,-1.234376 2.39614,-1.88787 1.4159,-0.689799 3.15855,-0.689799 1.59743,0 2.90442,0.544578 1.34329,0.544578 2.28723,1.706345 0.98024,1.125461 1.52481,2.977026 0.54458,1.81526 0.54458,4.356624 v 0.326747 h -13.46923 q 0.18153,3.594214 1.77896,5.591 1.59743,1.996786 5.19164,1.996786 1.48852,0 2.68659,-0.326747 1.19807,-0.363052 2.03309,-0.762409 z m -0.10892,-8.858468 q -0.0726,-1.706345 -0.43566,-3.049637 -0.36305,-1.379598 -1.08915,-2.323533 -0.6898,-0.943935 -1.77896,-1.452208 -1.05285,-0.508273 -2.54136,-0.508273 -2.72289,0 -4.35663,1.924176 -1.59742,1.924176 -1.81526,5.409475 z" /><path
     id="path2121"
     style="font-style:normal;font-variant:normal;font-weight:normal;font-stretch:normal;font-family:'Nokia Pure Headline Ultra Light';-inkscape-font-specification:'Nokia Pure Headline Ultra Light, ';fill:#001135;fill-opacity:1;stroke-width:1.13454"
     d="m 199.48416,82.712034 h -3.77574 v -1.270682 h 3.77574 v -5.409475 l 1.3796,-0.363052 v 5.772527 h 5.51839 v 1.270682 h -5.51839 v 11.254611 q 0,1.343293 0.25413,2.214618 0.25414,0.835019 0.76241,1.343292 0.50828,0.471968 1.27069,0.653494 0.79871,0.181526 1.85156,0.181526 0.54458,0 1.45221,-0.181526 l 0.18152,1.161766 q -0.29044,0.108915 -0.94393,0.181526 -0.61719,0.108915 -1.34329,0.108915 -1.3796,0 -2.32354,-0.363052 -0.90763,-0.399357 -1.48851,-1.089155 -0.54458,-0.689799 -0.79871,-1.633734 -0.25414,-0.943936 -0.25414,-2.033092 z" /><path
     id="path2123"
     style="font-style:normal;font-variant:normal;font-weight:normal;font-stretch:normal;font-family:'Nokia Pure Headline Ultra Light';-inkscape-font-specification:'Nokia Pure Headline Ultra Light, ';fill:#001135;fill-opacity:1;stroke-width:1.13454"
     d="m 219.67326,101.15507 h -1.41591 l 11.32723,-28.935239 h 1.4159 z" /><path
     id="path2125"
     style="font-style:normal;font-variant:normal;font-weight:normal;font-stretch:normal;font-family:'Nokia Pure Headline Ultra Light';-inkscape-font-specification:'Nokia Pure Headline Ultra Light, ';fill:#001135;fill-opacity:1;stroke-width:1.13454"
     d="m 257.04548,76.394929 q -0.98024,-0.617188 -2.46876,-1.089156 -1.45221,-0.471967 -3.41269,-0.471967 -3.01333,0 -4.61076,1.452208 -1.56112,1.415902 -1.56112,3.70313 0,1.089156 0.25414,1.851565 0.25413,0.762409 0.87132,1.379598 0.61719,0.580883 1.59743,1.089156 1.01655,0.508272 2.50506,1.05285 l 2.17831,0.76241 q 3.12225,1.089156 4.46554,2.759195 1.3796,1.670039 1.3796,4.102487 0,1.379598 -0.50827,2.613974 -0.50828,1.234377 -1.52482,2.214618 -1.01655,0.943935 -2.57767,1.524818 -1.52482,0.544578 -3.59422,0.544578 -1.30698,0 -2.46875,-0.217831 -1.12546,-0.217832 -2.1057,-0.544578 -0.94394,-0.326747 -1.70635,-0.689799 -0.7261,-0.363052 -1.16176,-0.653494 l 0.65349,-1.343292 q 0.54458,0.326747 1.16177,0.689799 0.65349,0.363052 1.45221,0.653493 0.83501,0.290442 1.85156,0.508273 1.05285,0.181526 2.35984,0.181526 1.34329,0 2.54136,-0.290441 1.19807,-0.290442 2.1057,-0.90763 0.90763,-0.653494 1.45221,-1.67004 0.54458,-1.016545 0.54458,-2.468753 0,-2.178312 -1.30699,-3.521604 -1.30698,-1.343293 -3.81204,-2.142007 l -1.92418,-0.617188 q -3.12225,-1.052851 -4.68337,-2.613975 -1.52482,-1.561123 -1.52482,-4.247708 0,-1.234377 0.43566,-2.396143 0.43567,-1.198072 1.3796,-2.105702 0.94394,-0.943935 2.43245,-1.488513 1.48851,-0.580883 3.59421,-0.580883 0.76241,0 1.59743,0.145221 0.87133,0.108915 1.70635,0.326747 0.87132,0.217831 1.63373,0.544578 0.76241,0.290441 1.3796,0.653493 z" /><path
     id="path2127"
     style="font-style:normal;font-variant:normal;font-weight:normal;font-stretch:normal;font-family:'Nokia Pure Headline Ultra Light';-inkscape-font-specification:'Nokia Pure Headline Ultra Light, ';fill:#001135;fill-opacity:1;stroke-width:1.13454"
     d="m 261.98469,81.441352 h 1.3796 v 10.927865 q 0,3.340078 1.16176,4.719676 1.19808,1.379597 3.34008,1.379597 1.45221,0 2.68659,-0.653493 1.27068,-0.653494 2.17831,-1.706345 0.94393,-1.089156 1.45221,-2.468753 0.54457,-1.379598 0.54457,-2.868111 v -9.330436 h 1.3796 V 99.44873 h -1.3796 v -4.356623 q -0.94393,2.214617 -2.75919,3.448994 -1.81526,1.234376 -4.24771,1.234376 -2.8318,0 -4.28401,-1.778954 -1.45221,-1.778955 -1.45221,-5.264254 z" /><path
     id="path2129"
     style="font-style:normal;font-variant:normal;font-weight:normal;font-stretch:normal;font-family:'Nokia Pure Headline Ultra Light';-inkscape-font-specification:'Nokia Pure Headline Ultra Light, ';fill:#001135;fill-opacity:1;stroke-width:1.13454"
     d="m 294.964,90.336126 q 0,-1.778955 -0.32675,-3.231163 -0.32675,-1.488513 -1.05285,-2.541364 -0.6898,-1.052851 -1.77895,-1.633734 -1.08916,-0.617188 -2.61398,-0.617188 -1.45221,0 -2.65028,0.580883 -1.19807,0.544578 -2.06939,1.561123 -0.87133,1.016546 -1.3433,2.396144 -0.47196,1.343292 -0.47196,2.977026 v 5.300559 q 0.25413,0.435662 0.7624,1.016545 0.54458,0.544578 1.30699,1.052851 0.79872,0.471968 1.81526,0.83502 1.01655,0.326747 2.28723,0.326747 1.30699,0 2.39614,-0.471968 1.12546,-0.508273 1.96048,-1.488513 0.83502,-1.016546 1.30699,-2.505059 0.47197,-1.524818 0.47197,-3.557909 z m 1.45221,0 q 0,2.613974 -0.72611,4.392929 -0.6898,1.778954 -1.77895,2.86811 -1.08916,1.089156 -2.43245,1.597429 -1.30699,0.471968 -2.57767,0.471968 -1.52482,0 -3.12225,-0.508273 -1.59743,-0.508273 -3.12224,-2.033091 v 2.323532 h -1.3796 V 72.219831 h 1.3796 v 12.852041 q 1.01654,-2.178312 2.68658,-3.122247 1.67004,-0.980241 3.99357,-0.980241 1.74265,0 3.04964,0.689799 1.30699,0.689799 2.21462,1.924176 0.90763,1.234376 1.34329,2.977026 0.47197,1.706344 0.47197,3.775741 z" /><path
     id="path2131"
     style="font-style:normal;font-variant:normal;font-weight:normal;font-stretch:normal;font-family:'Nokia Pure Headline Ultra Light';-inkscape-font-specification:'Nokia Pure Headline Ultra Light, ';fill:#001135;fill-opacity:1;stroke-width:1.13454"
     d="m 306.84147,89.755242 q 1.01655,0.181526 1.92418,0.544578 0.94393,0.326747 1.63373,0.90763 0.6898,0.580884 1.08916,1.415903 0.39935,0.83502 0.39935,1.996786 0,2.432448 -1.77895,3.812046 -1.74265,1.343292 -4.71968,1.343292 -2.25092,0 -3.84835,-0.544578 -1.59743,-0.580883 -2.39614,-1.089156 l 0.58088,-1.198071 q 0.79872,0.508273 2.25093,1.016545 1.4522,0.508273 3.37638,0.508273 1.4159,0 2.39614,-0.290441 0.98024,-0.290442 1.56113,-0.798715 0.61718,-0.508273 0.87132,-1.198071 0.29044,-0.689799 0.29044,-1.452208 0,-0.653494 -0.18152,-1.198072 -0.14523,-0.580883 -0.58089,-1.052851 -0.43566,-0.471967 -1.23437,-0.798714 -0.76241,-0.363052 -1.99679,-0.580883 l -1.96048,-0.363052 q -2.65028,-0.471968 -3.88466,-1.561124 -1.23437,-1.089156 -1.23437,-3.267468 0,-1.234376 0.47196,-2.142006 0.50828,-0.943936 1.3433,-1.561124 0.83502,-0.617188 1.92417,-0.90763 1.12546,-0.326747 2.35984,-0.326747 1.81526,0 3.08594,0.399358 1.30699,0.399357 2.25092,0.907629 l -0.50827,1.234377 q -0.83502,-0.435662 -2.0694,-0.835019 -1.19807,-0.399358 -2.7955,-0.399358 -2.17831,0 -3.41268,1.016546 -1.23438,0.98024 -1.23438,2.72289 0,0.726104 0.18152,1.270682 0.21784,0.508273 0.72611,0.90763 0.50827,0.399357 1.30699,0.689799 0.83502,0.290441 2.1057,0.544578 z" /><path
     id="path2133"
     style="font-style:normal;font-variant:normal;font-weight:normal;font-stretch:normal;font-family:'Nokia Pure Headline Ultra Light';-inkscape-font-specification:'Nokia Pure Headline Ultra Light, ';fill:#001135;fill-opacity:1;stroke-width:1.13454"
     d="m 316.17587,90.408736 q 0,2.105702 0.47196,3.63052 0.50828,1.524818 1.3433,2.505059 0.87132,0.98024 2.03309,1.452208 1.19807,0.471967 2.57767,0.471967 1.74265,0 2.72289,-0.363052 1.01654,-0.363052 1.85156,-0.762409 l 0.50827,1.052851 q -0.7261,0.508272 -1.88787,0.943935 -1.16176,0.435662 -3.19485,0.435662 -3.73944,0 -5.80884,-2.396143 -2.06939,-2.396143 -2.06939,-6.970598 0,-2.069396 0.54458,-3.812046 0.54457,-1.742649 1.56112,-2.977026 1.05285,-1.270682 2.50506,-1.960481 1.45221,-0.689799 3.26747,-0.689799 0.98024,0 1.74265,0.145221 0.76241,0.108916 1.34329,0.326747 0.61719,0.217831 1.08915,0.508273 0.47197,0.290441 0.87133,0.617188 l -0.6898,1.125461 q -0.6898,-0.471967 -1.70634,-0.943935 -1.01655,-0.471968 -2.57767,-0.471968 -2.90442,0 -4.71968,2.069397 -1.77895,2.069396 -1.77895,6.062968 z" /><path
     id="path2135"
     style="font-style:normal;font-variant:normal;font-weight:normal;font-stretch:normal;font-family:'Nokia Pure Headline Ultra Light';-inkscape-font-specification:'Nokia Pure Headline Ultra Light, ';fill:#001135;fill-opacity:1;stroke-width:1.13454"
     d="m 332.82349,81.441352 v 4.284013 q 0.83502,-2.142006 2.50506,-3.267468 1.67004,-1.161766 4.02988,-1.161766 0.21783,0 0.58088,0.0363 0.36305,0 0.61719,0.07261 l -0.14522,1.343292 q -0.25414,-0.0363 -0.65349,-0.0363 -0.36306,-0.0363 -0.54458,-0.0363 -1.59743,0 -2.7955,0.653493 -1.19807,0.617189 -1.99679,1.706345 -0.79871,1.089156 -1.23438,2.541364 -0.39935,1.452207 -0.39935,3.049636 v 8.822163 h -1.3796 V 81.441352 Z" /><path
     id="path2137"
     style="font-style:normal;font-variant:normal;font-weight:normal;font-stretch:normal;font-family:'Nokia Pure Headline Ultra Light';-inkscape-font-specification:'Nokia Pure Headline Ultra Light, ';fill:#001135;fill-opacity:1;stroke-width:1.13454"
     d="m 343.35996,81.441352 h 1.3796 V 99.44873 h -1.3796 z m 0.6898,-4.61076 q -0.54458,0 -0.94394,-0.363052 -0.39935,-0.363052 -0.39935,-1.089156 0,-0.653494 0.39935,-1.052851 0.39936,-0.399357 0.94394,-0.399357 0.54458,0 0.94393,0.399357 0.39936,0.399357 0.39936,1.052851 0,0.726104 -0.39936,1.089156 -0.39935,0.363052 -0.94393,0.363052 z" /><path
     id="path2139"
     style="font-style:normal;font-variant:normal;font-weight:normal;font-stretch:normal;font-family:'Nokia Pure Headline Ultra Light';-inkscape-font-specification:'Nokia Pure Headline Ultra Light, ';fill:#001135;fill-opacity:1;stroke-width:1.13454"
     d="m 363.74532,90.336126 q 0,-1.778955 -0.32674,-3.231163 -0.32675,-1.488513 -1.05285,-2.541364 -0.6898,-1.052851 -1.77896,-1.633734 -1.08915,-0.617188 -2.61397,-0.617188 -1.45221,0 -2.65028,0.580883 -1.19807,0.544578 -2.0694,1.561123 -0.87132,1.016546 -1.34329,2.396144 -0.47197,1.343292 -0.47197,2.977026 v 5.300559 q 0.25414,0.435662 0.76241,1.016545 0.54458,0.544578 1.30699,1.052851 0.79871,0.471968 1.81526,0.83502 1.01654,0.326747 2.28723,0.326747 1.30698,0 2.39614,-0.471968 1.12546,-0.508273 1.96048,-1.488513 0.83502,-1.016546 1.30699,-2.505059 0.47196,-1.524818 0.47196,-3.557909 z m 1.45221,0 q 0,2.613974 -0.7261,4.392929 -0.6898,1.778954 -1.77896,2.86811 -1.08915,1.089156 -2.43244,1.597429 -1.30699,0.471968 -2.57767,0.471968 -1.52482,0 -3.12225,-0.508273 -1.59743,-0.508273 -3.12225,-2.033091 v 2.323532 h -1.3796 V 72.219831 h 1.3796 v 12.852041 q 1.01655,-2.178312 2.68659,-3.122247 1.67004,-0.980241 3.99357,-0.980241 1.74265,0 3.04964,0.689799 1.30698,0.689799 2.21461,1.924176 0.90763,1.234376 1.34329,2.977026 0.47197,1.706344 0.47197,3.775741 z" /><path
     id="path2141"
     style="font-style:normal;font-variant:normal;font-weight:normal;font-stretch:normal;font-family:'Nokia Pure Headline Ultra Light';-inkscape-font-specification:'Nokia Pure Headline Ultra Light, ';fill:#001135;fill-opacity:1;stroke-width:1.13454"
     d="m 382.15773,98.46849 q -0.65349,0.435662 -2.03309,0.871325 -1.37959,0.435662 -3.19485,0.435662 -2.10571,0 -3.66683,-0.653493 -1.56112,-0.689799 -2.61397,-1.887871 -1.01655,-1.234376 -1.52482,-2.940721 -0.50828,-1.742649 -0.50828,-3.884656 0,-2.178312 0.54458,-3.920961 0.54458,-1.74265 1.52482,-2.940722 0.98024,-1.234376 2.39614,-1.88787 1.41591,-0.689799 3.15856,-0.689799 1.59743,0 2.90441,0.544578 1.34329,0.544578 2.28723,1.706345 0.98024,1.125461 1.52482,2.977026 0.54458,1.81526 0.54458,4.356624 v 0.326747 H 370.0318 q 0.18152,3.594214 1.77895,5.591 1.59743,1.996786 5.19165,1.996786 1.48851,0 2.68658,-0.326747 1.19807,-0.363052 2.03309,-0.762409 z m -0.10891,-8.858468 q -0.0726,-1.706345 -0.43566,-3.049637 -0.36306,-1.379598 -1.08916,-2.323533 -0.6898,-0.943935 -1.77895,-1.452208 -1.05286,-0.508273 -2.54137,-0.508273 -2.72289,0 -4.35662,1.924176 -1.59743,1.924176 -1.81526,5.409475 z" /></g></g>
</g>
</svg>
