<?xml version="1.0" encoding="UTF-8" standalone="no"?>
<svg
   xmlns:dc="http://purl.org/dc/elements/1.1/"
   xmlns:cc="http://creativecommons.org/ns#"
   xmlns:rdf="http://www.w3.org/1999/02/22-rdf-syntax-ns#"
   xmlns:svg="http://www.w3.org/2000/svg"
   xmlns="http://www.w3.org/2000/svg"
   xmlns:sodipodi="http://sodipodi.sourceforge.net/DTD/sodipodi-0.dtd"
   xmlns:inkscape="http://www.inkscape.org/namespaces/inkscape"
   version="1.1"
   id="Layer_1"
   x="0px"
   y="0px"
   viewBox="0 0 231.1914 54.669313"
   xml:space="preserve"
   sodipodi:docname="gnmi-logo-ink copy.svg"
   inkscape:version="1.0rc1 (09960d6, 2020-04-09)"
   inkscape:export-filename="/Users/romandodin/Downloads/gnmi-logo1.png"
   inkscape:export-xdpi="96"
   inkscape:export-ydpi="96"
   width="231.19139"
   height="54.669312"><metadata
   id="metadata174"><rdf:RDF><cc:Work
       rdf:about=""><dc:format>image/svg+xml</dc:format><dc:type
         rdf:resource="http://purl.org/dc/dcmitype/StillImage" /><dc:title /></cc:Work></rdf:RDF></metadata><defs
   id="defs172" /><sodipodi:namedview
   inkscape:document-rotation="0"
   pagecolor="#ffffff"
   bordercolor="#666666"
   borderopacity="1"
   objecttolerance="10"
   gridtolerance="10"
   guidetolerance="10"
   inkscape:pageopacity="0"
   inkscape:pageshadow="2"
   inkscape:window-width="2560"
   inkscape:window-height="1395"
   id="namedview170"
   showgrid="true"
   inkscape:zoom="3.1809595"
   inkscape:cx="127.33397"
   inkscape:cy="57.198386"
   inkscape:window-x="1440"
   inkscape:window-y="23"
   inkscape:window-maximized="1"
   inkscape:current-layer="g165"
   showguides="false"><inkscape:grid
     type="xygrid"
     id="grid1215"
     originx="-1.1924608"
     originy="-4.8701629" /></sodipodi:namedview>
<style
   type="text/css"
   id="style128">
	.st0{fill:#2DBCAF;}
</style>
<g
   id="g167"
   transform="translate(-1.1924608,-7.5512738)">
	<g
   id="g136"
   style="fill:#00c9ff;fill-opacity:1"
   transform="matrix(0.92616362,0,0,0.83882989,1.1924608,5.3022773)">
		<g
   id="g134"
   style="fill:#00c9ff;fill-opacity:1">
			<g
   id="g132"
   style="fill:#00c9ff;fill-opacity:1">
				<path
   class="st0"
   d="M 15.5,23.2 C 15.1,23.2 15,23 15.2,22.7 L 17.3,20 c 0.2,-0.3 0.7,-0.5 1.1,-0.5 h 35.7 c 0.4,0 0.5,0.3 0.3,0.6 l -1.7,2.6 c -0.2,0.3 -0.7,0.6 -1,0.6 z"
   id="path130"
   style="fill:#00c9ff;fill-opacity:1"
   inkscape:connector-curvature="0" />
			</g>
		</g>
	</g>
	<g
   id="g144"
   style="fill:#00c9ff;fill-opacity:1"
   transform="matrix(0.92616362,0,0,0.83882989,1.1924608,5.3022773)">
		<g
   id="g142"
   style="fill:#00c9ff;fill-opacity:1">
			<g
   id="g140"
   style="fill:#00c9ff;fill-opacity:1">
				<path
   class="st0"
   d="M 0.4,32.4 C 0,32.4 -0.1,32.2 0.1,31.9 l 2.1,-2.7 c 0.2,-0.3 0.7,-0.5 1.1,-0.5 h 45.6 c 0.4,0 0.6,0.3 0.5,0.6 l -0.8,2.4 c -0.1,0.4 -0.5,0.6 -0.9,0.6 z"
   id="path138"
   style="fill:#00c9ff;fill-opacity:1"
   inkscape:connector-curvature="0" />
			</g>
		</g>
	</g>
	<g
   id="g152"
   style="fill:#00c9ff;fill-opacity:1"
   transform="matrix(0.92616362,0,0,0.83882989,1.1924608,5.3022773)">
		<g
   id="g150"
   style="fill:#00c9ff;fill-opacity:1">
			<g
   id="g148"
   style="fill:#00c9ff;fill-opacity:1">
				<path
   class="st0"
   d="m 24.6,41.6 c -0.4,0 -0.5,-0.3 -0.3,-0.6 l 1.4,-2.5 c 0.2,-0.3 0.6,-0.6 1,-0.6 h 20 c 0.4,0 0.6,0.3 0.6,0.7 L 47.1,41 c 0,0.4 -0.4,0.7 -0.7,0.7 z"
   id="path146"
   style="fill:#00c9ff;fill-opacity:1"
   inkscape:connector-curvature="0" />
			</g>
		</g>
	</g>
	<g
   id="g165"
   transform="matrix(0.92616362,0,0,0.83882989,4.8354619,7.7582087)">
		
	<text
   xml:space="preserve"
   style="font-style:normal;font-variant:normal;font-weight:normal;font-stretch:normal;font-size:69.3333px;line-height:1.25;font-family:'Nokia Pure Headline';-inkscape-font-specification:'Nokia Pure Headline weight=255';fill:#000000;fill-opacity:1;stroke:none"
   x="43.345375"
   y="48.494614"
   id="text178"><tspan
     sodipodi:role="line"
     id="tspan176"
     x="43.345375"
     y="48.494614"
     style="font-style:italic;font-variant:normal;font-weight:bold;font-stretch:normal;font-family:'Nokia Pure Text';-inkscape-font-specification:'Nokia Pure Text Bold';fill:#124191;fill-opacity:1">gNMIc</tspan></text></g>
</g>
</svg>
