<?xml version="1.0" encoding="UTF-8" standalone="no"?>
<svg
   xmlns:dc="http://purl.org/dc/elements/1.1/"
   xmlns:cc="http://creativecommons.org/ns#"
   xmlns:rdf="http://www.w3.org/1999/02/22-rdf-syntax-ns#"
   xmlns:svg="http://www.w3.org/2000/svg"
   xmlns="http://www.w3.org/2000/svg"
   height="97.514603"
   width="389.91418"
   xml:space="preserve"
   viewBox="0 0 389.9142 97.514604"
   y="0px"
   x="0px"
   id="Layer_1"
   version="1.1"><metadata
   id="metadata174"><rdf:RDF><cc:Work
       rdf:about=""><dc:format>image/svg+xml</dc:format><dc:type
         rdf:resource="http://purl.org/dc/dcmitype/StillImage" /><dc:title></dc:title></cc:Work></rdf:RDF></metadata><defs
   id="defs172" />
<style
   id="style128"
   type="text/css">
	.st0{fill:#2DBCAF;}
</style>
<g
   transform="translate(78.183906,-7.6395906)"
   id="g167">
	
	
	
	<g
   transform="matrix(0.92616362,0,0,0.83882989,4.8354619,7.7582087)"
   id="g165"><g
   id="g982"><g
     id="g136"
     style="fill:#00c9ff;fill-opacity:1"
     transform="translate(-3.9334312,-2.9278063)">
		<g
   id="g134"
   style="fill:#00c9ff;fill-opacity:1">
			<g
   id="g132"
   style="fill:#00c9ff;fill-opacity:1">
				<path
   class="st0"
   d="M 15.5,23.2 C 15.1,23.2 15,23 15.2,22.7 L 17.3,20 c 0.2,-0.3 0.7,-0.5 1.1,-0.5 h 35.7 c 0.4,0 0.5,0.3 0.3,0.6 l -1.7,2.6 c -0.2,0.3 -0.7,0.6 -1,0.6 z"
   id="path130"
   style="fill:#00c9ff;fill-opacity:1" />
			</g>
		</g>
	</g><g
     id="g144"
     style="fill:#00c9ff;fill-opacity:1"
     transform="translate(-3.9334312,-2.9278063)">
		<g
   id="g142"
   style="fill:#00c9ff;fill-opacity:1">
			<g
   id="g140"
   style="fill:#00c9ff;fill-opacity:1">
				<path
   class="st0"
   d="M 0.4,32.4 C 0,32.4 -0.1,32.2 0.1,31.9 l 2.1,-2.7 c 0.2,-0.3 0.7,-0.5 1.1,-0.5 h 45.6 c 0.4,0 0.6,0.3 0.5,0.6 l -0.8,2.4 c -0.1,0.4 -0.5,0.6 -0.9,0.6 z"
   id="path138"
   style="fill:#00c9ff;fill-opacity:1" />
			</g>
		</g>
	</g><g
     id="g152"
     style="fill:#00c9ff;fill-opacity:1"
     transform="translate(-3.9334312,-2.9278063)">
		<g
   id="g150"
   style="fill:#00c9ff;fill-opacity:1">
			<g
   id="g148"
   style="fill:#00c9ff;fill-opacity:1">
				<path
   class="st0"
   d="m 24.6,41.6 c -0.4,0 -0.5,-0.3 -0.3,-0.6 l 1.4,-2.5 c 0.2,-0.3 0.6,-0.6 1,-0.6 h 20 c 0.4,0 0.6,0.3 0.6,0.7 L 47.1,41 c 0,0.4 -0.4,0.7 -0.7,0.7 z"
   id="path146"
   style="fill:#00c9ff;fill-opacity:1" />
			</g>
		</g>
	</g><g
     style="font-style:normal;font-variant:normal;font-weight:normal;font-stretch:normal;font-size:69.3333px;line-height:1.25;font-family:'Nokia Pure Headline';-inkscape-font-specification:'Nokia Pure Headline weight=255';fill:#000000;fill-opacity:1;stroke:none;stroke-width:1"
     id="text178-0"
     aria-label="gNMIc"><path
       id="path1002"
       style="font-style:italic;font-variant:normal;font-weight:bold;font-stretch:normal;font-family:'Nokia Pure Text';-inkscape-font-specification:'Nokia Pure Text Bold';fill:#124191;fill-opacity:1;stroke-width:1"
       d="m 81.169018,19.687914 q 1.178666,1.178666 1.594666,2.981332 0.485333,1.733332 0.138667,3.327998 -0.624,3.327999 -2.634665,5.615997 -1.941333,2.218666 -4.506665,3.605332 -2.565332,1.317332 -5.338664,1.941332 -2.703998,0.554667 -4.853331,0.554667 -1.247999,0 -3.466664,-0.277334 -2.149333,-0.277333 -4.090665,-1.178666 -0.554666,0.485333 -0.901333,1.317333 -0.346666,0.762666 -0.485333,1.386666 -0.346666,1.594666 0.554666,2.565332 0.970667,0.901333 4.298665,1.039999 l 7.210663,0.277334 q 3.050665,0.138666 5.47733,0.693333 2.426666,0.485333 3.951998,1.663999 1.594666,1.109332 2.149333,2.981332 0.623999,1.802665 0.06933,4.506664 -0.485333,2.634665 -2.149332,4.853331 -1.594666,2.287999 -4.437331,3.951998 -2.773332,1.663999 -6.794664,2.565332 -3.951998,0.970666 -9.221328,0.970666 -2.218666,0 -4.853331,-0.416 -2.565332,-0.346666 -4.783998,-1.455999 -2.149332,-1.109333 -3.327998,-3.119999 -1.178666,-1.941332 -0.554666,-5.06133 0.485333,-2.703999 2.149332,-4.922664 1.663999,-2.149333 3.674665,-3.466665 -1.178666,-1.109333 -1.525333,-2.426666 -0.346666,-1.386666 0,-3.119998 0.485333,-2.426666 2.010666,-4.437331 1.594666,-2.010666 3.327998,-3.397332 -1.594666,-1.594666 -2.079999,-3.674665 -0.416,-2.149332 0,-4.298664 0.693333,-3.466665 2.634666,-5.823997 1.941332,-2.426665 4.506664,-3.882665 2.634665,-1.455999 5.47733,-2.079999 2.842666,-0.693333 5.407998,-0.693333 1.871999,0 3.189331,0.138667 1.386666,0.138667 2.426666,0.346666 1.109332,0.138667 2.010665,0.277334 0.901333,0.138666 1.871999,0.138666 h 8.805329 l -1.317332,6.378664 h -1.04 q -1.039999,0 -2.287999,-0.06933 -1.178666,-0.138666 -2.287999,-0.277333 z M 60.993029,49.986565 q -1.455999,-0.06933 -3.397332,-0.208 -1.871999,-0.138666 -3.050665,-0.623999 -0.693333,0.831999 -1.247999,1.733332 -0.554667,0.970666 -0.832,2.218666 -0.346666,1.594665 0.138667,2.565332 0.554666,1.039999 1.594666,1.594666 1.039999,0.554666 2.495998,0.762666 1.525333,0.208 3.119999,0.208 5.68533,0 8.181329,-1.248 2.495999,-1.247999 2.981332,-3.466665 0.346666,-1.802665 -0.762667,-2.565332 -1.109332,-0.762666 -3.258665,-0.831999 z m 13.03466,-24.751987 q 0.346666,-1.663999 0,-2.773332 -0.277333,-1.178666 -1.109333,-1.871999 -0.762666,-0.693333 -1.871999,-0.970666 -1.109333,-0.346667 -2.357332,-0.346667 -1.248,0 -2.495999,0.346667 -1.247999,0.277333 -2.357332,0.970666 -1.039999,0.693333 -1.871999,1.871999 -0.762666,1.109333 -1.109333,2.773332 -0.277333,1.663999 0,2.842665 0.346667,1.109333 1.109333,1.802666 0.832,0.693333 1.941332,0.970666 1.109333,0.277333 2.357332,0.277333 1.248,0 2.495999,-0.277333 1.247999,-0.277333 2.287999,-0.901333 1.109333,-0.693333 1.871999,-1.802666 0.762666,-1.178666 1.109333,-2.911998 z" /><path
       id="path1004"
       style="font-style:italic;font-variant:normal;font-weight:bold;font-stretch:normal;font-family:'Nokia Pure Text';-inkscape-font-specification:'Nokia Pure Text Bold';fill:#124191;fill-opacity:1;stroke-width:1"
       d="M 102.91801,14.626583 96.123343,48.599899 H 86.902015 L 96.67801,-0.14140901 h 9.77599 l 12.48,33.27998301 6.656,-33.27998301 h 9.22132 L 125.03533,48.599899 H 116.022 Z" /><path
       id="path1006"
       style="font-style:italic;font-variant:normal;font-weight:bold;font-stretch:normal;font-family:'Nokia Pure Text';-inkscape-font-specification:'Nokia Pure Text Bold';fill:#124191;fill-opacity:1;stroke-width:1"
       d="M 191.33637,-0.14140901 181.56038,48.599899 h -9.22133 l 6.58666,-32.933316 -14.90666,21.354656 h -7.21066 l -5.89333,-20.522657 -6.448,32.101317 h -9.22133 l 9.776,-48.74130801 h 10.39999 l 7.34933,26.83198601 18.09599,-26.83198601 z" /><path
       id="path1008"
       style="font-style:italic;font-variant:normal;font-weight:bold;font-stretch:normal;font-family:'Nokia Pure Text';-inkscape-font-specification:'Nokia Pure Text Bold';fill:#124191;fill-opacity:1;stroke-width:1"
       d="m 201.62587,48.599899 h -9.77599 l 9.77599,-48.74130801 h 9.776 z" /><path
       id="path1010"
       style="font-style:italic;font-variant:normal;font-weight:bold;font-stretch:normal;font-family:'Nokia Pure Text';-inkscape-font-specification:'Nokia Pure Text Bold';fill:#124191;fill-opacity:1;stroke-width:1"
       d="m 222.49953,31.127908 q -1.04,5.407997 0.76266,7.903996 1.80267,2.495999 6.17067,2.495999 2.91199,0 4.85333,-0.762666 2.01066,-0.762667 3.12,-1.386666 l 2.21866,6.30933 q -0.69333,0.416 -1.872,1.109333 -1.17866,0.623999 -2.77333,1.247999 -1.59467,0.624 -3.67466,1.039999 -2.01067,0.485333 -4.368,0.485333 -8.66666,0 -12.064,-4.922664 -3.39733,-4.991997 -1.73333,-13.519993 0.832,-4.090664 2.704,-7.487996 1.94133,-3.397331 4.64533,-5.823997 2.77333,-2.426665 6.24,-3.743998 3.46666,-1.317333 7.48799,-1.317333 2.56534,0 4.576,0.624 2.08,0.554666 3.536,1.317333 1.456,0.762666 2.21867,1.525332 0.83199,0.693333 1.10933,0.970666 l -5.47733,6.378664 q -0.27734,-0.208 -0.90134,-0.693333 -0.55466,-0.485333 -1.45599,-0.901333 -0.90134,-0.485333 -2.08,-0.832 -1.10934,-0.346666 -2.42667,-0.346666 -3.952,0 -6.864,2.565332 -2.91199,2.565332 -3.95199,7.765329 z" /></g></g>
		
	<g
   aria-label="Get / Set / Subscribe"
   transform="matrix(0.95168469,0,0,1.0507682,-95.046792,-0.55799889)"
   id="text1501"
   style="font-style:normal;font-variant:normal;font-weight:normal;font-stretch:normal;font-size:36.3052px;line-height:1.25;font-family:'Nokia Pure Headline Ultra Light';-inkscape-font-specification:'Nokia Pure Headline Ultra Light, ';fill:#000000;fill-opacity:1;stroke:none;stroke-width:1.13454"><g
     style="font-style:normal;font-variant:normal;font-weight:normal;font-stretch:normal;font-size:36.3052px;line-height:1.25;font-family:'Nokia Pure Headline Ultra Light';-inkscape-font-specification:'Nokia Pure Headline Ultra Light, ';fill:#001135;fill-opacity:1;stroke:none;stroke-width:1.28718"
     id="text131"
     aria-label="Get / Set / Subscribe / Collect"><path
       id="path1013"
       style="font-style:normal;font-variant:normal;font-weight:normal;font-stretch:normal;font-family:'Nokia Pure Headline Ultra Light';-inkscape-font-specification:'Nokia Pure Headline Ultra Light, ';fill:#001135;fill-opacity:1;stroke-width:1.28718"
       d="m 7.2446081,96.689964 q 0,3.267468 0.6897988,5.518386 0.6897987,2.25093 1.9604807,3.63052 1.2706824,1.3433 3.0859414,1.96048 1.81526,0.58089 4.066183,0.58089 0.689799,0 1.452208,-0.0726 0.762409,-0.10892 1.488513,-0.25414 0.726104,-0.18152 1.343292,-0.36305 0.617189,-0.18153 1.052851,-0.36305 V 98.178477 H 16.320908 V 96.87149 h 7.515176 v 11.07309 q -0.326747,0.21783 -1.016546,0.54457 -0.653493,0.29044 -1.597428,0.58089 -0.943936,0.29044 -2.105702,0.47196 -1.161766,0.21784 -2.505059,0.21784 -5.373169,0 -8.1686693,-3.23117 -2.7591951,-3.26747 -2.7591951,-9.838706 0,-2.868111 0.6534935,-5.336864 0.6897988,-2.468754 2.0330912,-4.284014 1.3432923,-1.81526 3.3400787,-2.831805 1.996785,-1.016546 4.647065,-1.016546 2.396143,0 4.138793,0.544578 1.742649,0.508273 3.194857,1.670039 l -0.762409,1.198072 q -0.363052,-0.290442 -0.90763,-0.653494 -0.508273,-0.363052 -1.270682,-0.653493 -0.762409,-0.326747 -1.81526,-0.544578 -1.052851,-0.217832 -2.432448,-0.217832 -1.924176,0 -3.594215,0.689799 -1.670039,0.653494 -2.940721,2.142007 -1.270682,1.452208 -1.9967859,3.775741 -0.726104,2.287227 -0.726104,5.51839 z" /><path
       id="path1015"
       style="font-style:normal;font-variant:normal;font-weight:normal;font-stretch:normal;font-family:'Nokia Pure Headline Ultra Light';-inkscape-font-specification:'Nokia Pure Headline Ultra Light, ';fill:#001135;fill-opacity:1;stroke-width:1.28718"
       d="m 41.276193,108.34393 q -0.653493,0.43566 -2.033091,0.87133 -1.379598,0.43566 -3.194858,0.43566 -2.105701,0 -3.666825,-0.65349 -1.561123,-0.6898 -2.613974,-1.88787 -1.016545,-1.23438 -1.524818,-2.94073 -0.508273,-1.74264 -0.508273,-3.88465 0,-2.178313 0.544578,-3.920963 0.544578,-1.742649 1.524818,-2.940721 0.980241,-1.234377 2.396143,-1.88787 1.415903,-0.689799 3.158553,-0.689799 1.597428,0 2.904416,0.544578 1.343292,0.544578 2.287227,1.706344 0.98024,1.125461 1.524818,2.977026 0.544578,1.81526 0.544578,4.356625 v 0.32675 H 29.150257 q 0.181526,3.59421 1.778954,5.591 1.597429,1.99678 5.191644,1.99678 1.488513,0 2.686585,-0.32674 1.198071,-0.36306 2.033091,-0.76241 z M 41.167278,99.485464 Q 41.094667,97.77912 40.731615,96.435827 40.368563,95.05623 39.642459,94.112295 38.95266,93.16836 37.863504,92.660087 q -1.05285,-0.508273 -2.541363,-0.508273 -2.72289,0 -4.356624,1.924176 -1.597429,1.924175 -1.81526,5.409474 z" /><path
       id="path1017"
       style="font-style:normal;font-variant:normal;font-weight:normal;font-stretch:normal;font-family:'Nokia Pure Headline Ultra Light';-inkscape-font-specification:'Nokia Pure Headline Ultra Light, ';fill:#001135;fill-opacity:1;stroke-width:1.28718"
       d="m 48.212187,92.587476 h -3.775741 v -1.270682 h 3.775741 V 85.90732 l 1.379597,-0.363052 v 5.772526 h 5.518391 v 1.270682 h -5.518391 v 11.254614 q 0,1.34329 0.254137,2.21462 0.254136,0.83501 0.762409,1.34329 0.508273,0.47197 1.270682,0.65349 0.798714,0.18153 1.851565,0.18153 0.544578,0 1.452208,-0.18153 l 0.181526,1.16177 q -0.290442,0.10891 -0.943935,0.18152 -0.617188,0.10892 -1.343292,0.10892 -1.379598,0 -2.323533,-0.36305 -0.90763,-0.39936 -1.488513,-1.08916 -0.544578,-0.6898 -0.798715,-1.63373 -0.254136,-0.94394 -0.254136,-2.03309 z" /><path
       id="path1019"
       style="font-style:normal;font-variant:normal;font-weight:normal;font-stretch:normal;font-family:'Nokia Pure Headline Ultra Light';-inkscape-font-specification:'Nokia Pure Headline Ultra Light, ';fill:#001135;fill-opacity:1;stroke-width:1.28718"
       d="M 68.40128,111.03052 H 66.985377 L 78.312599,82.095274 h 1.415903 z" /><path
       id="path1021"
       style="font-style:normal;font-variant:normal;font-weight:normal;font-stretch:normal;font-family:'Nokia Pure Headline Ultra Light';-inkscape-font-specification:'Nokia Pure Headline Ultra Light, ';fill:#001135;fill-opacity:1;stroke-width:1.28718"
       d="m 105.77351,86.270372 q -0.98024,-0.617189 -2.46875,-1.089156 -1.45221,-0.471968 -3.412691,-0.471968 -3.013332,0 -4.610761,1.452208 -1.561123,1.415903 -1.561123,3.70313 0,1.089156 0.254136,1.851566 0.254137,0.762409 0.871325,1.379597 0.617188,0.580883 1.597429,1.089156 1.016545,0.508273 2.505058,1.052851 l 2.178317,0.762409 q 3.12224,1.089156 4.46553,2.759195 1.3796,1.67004 1.3796,4.10249 0,1.3796 -0.50827,2.61397 -0.50827,1.23438 -1.52482,2.21462 -1.01654,0.94393 -2.57767,1.52482 -1.52482,0.54458 -3.594213,0.54458 -1.306987,0 -2.468753,-0.21784 -1.125461,-0.21783 -2.105702,-0.54457 -0.943935,-0.32675 -1.706344,-0.6898 -0.726104,-0.36305 -1.161766,-0.6535 l 0.653493,-1.34329 q 0.544578,0.32675 1.161767,0.6898 0.653493,0.36305 1.452208,0.65349 0.835019,0.29045 1.851565,0.50828 1.05285,0.18152 2.359838,0.18152 1.343287,0 2.541367,-0.29044 1.19807,-0.29044 2.1057,-0.90763 0.90763,-0.65349 1.45221,-1.67004 0.54457,-1.01654 0.54457,-2.46875 0,-2.17831 -1.30698,-3.521606 -1.30699,-1.343292 -3.81205,-2.142007 l -1.924175,-0.617188 q -3.122247,-1.052851 -4.68337,-2.613974 -1.524819,-1.561124 -1.524819,-4.247709 0,-1.234376 0.435663,-2.396143 0.435662,-1.198071 1.379597,-2.105701 0.943936,-0.943935 2.432449,-1.488513 1.488513,-0.580883 3.594215,-0.580883 0.76241,0 1.59743,0.14522 0.87132,0.108916 1.70634,0.326747 0.87133,0.217831 1.63374,0.544578 0.76241,0.290442 1.37959,0.653494 z" /><path
       id="path1023"
       style="font-style:normal;font-variant:normal;font-weight:normal;font-stretch:normal;font-family:'Nokia Pure Headline Ultra Light';-inkscape-font-specification:'Nokia Pure Headline Ultra Light, ';fill:#001135;fill-opacity:1;stroke-width:1.28718"
       d="m 123.60106,108.34393 q -0.65349,0.43566 -2.03309,0.87133 -1.3796,0.43566 -3.19486,0.43566 -2.1057,0 -3.66682,-0.65349 -1.56112,-0.6898 -2.61398,-1.88787 -1.01654,-1.23438 -1.52481,-2.94073 -0.50828,-1.74264 -0.50828,-3.88465 0,-2.178313 0.54458,-3.920963 0.54458,-1.742649 1.52482,-2.940721 0.98024,-1.234377 2.39614,-1.88787 1.41591,-0.689799 3.15855,-0.689799 1.59743,0 2.90442,0.544578 1.34329,0.544578 2.28723,1.706344 0.98024,1.125461 1.52482,2.977026 0.54457,1.81526 0.54457,4.356625 v 0.32675 h -13.46922 q 0.18152,3.59421 1.77895,5.591 1.59743,1.99678 5.19164,1.99678 1.48852,0 2.68659,-0.32674 1.19807,-0.36306 2.03309,-0.76241 z m -0.10891,-8.858466 q -0.0726,-1.706344 -0.43567,-3.049637 -0.36305,-1.379597 -1.08915,-2.323532 -0.6898,-0.943935 -1.77896,-1.452208 -1.05285,-0.508273 -2.54136,-0.508273 -2.72289,0 -4.35662,1.924176 -1.59743,1.924175 -1.81526,5.409474 z" /><path
       id="path1025"
       style="font-style:normal;font-variant:normal;font-weight:normal;font-stretch:normal;font-family:'Nokia Pure Headline Ultra Light';-inkscape-font-specification:'Nokia Pure Headline Ultra Light, ';fill:#001135;fill-opacity:1;stroke-width:1.28718"
       d="m 130.53706,92.587476 h -3.77574 v -1.270682 h 3.77574 V 85.90732 l 1.3796,-0.363052 v 5.772526 h 5.51839 v 1.270682 h -5.51839 v 11.254614 q 0,1.34329 0.25414,2.21462 0.25413,0.83501 0.7624,1.34329 0.50828,0.47197 1.27069,0.65349 0.79871,0.18153 1.85156,0.18153 0.54458,0 1.45221,-0.18153 l 0.18153,1.16177 q -0.29045,0.10891 -0.94394,0.18152 -0.61719,0.10892 -1.34329,0.10892 -1.3796,0 -2.32353,-0.36305 -0.90763,-0.39936 -1.48852,-1.08916 -0.54458,-0.6898 -0.79871,-1.63373 -0.25414,-0.94394 -0.25414,-2.03309 z" /><path
       id="path1027"
       style="font-style:normal;font-variant:normal;font-weight:normal;font-stretch:normal;font-family:'Nokia Pure Headline Ultra Light';-inkscape-font-specification:'Nokia Pure Headline Ultra Light, ';fill:#001135;fill-opacity:1;stroke-width:1.28718"
       d="m 150.72616,111.03052 h -1.4159 l 11.32722,-28.935246 h 1.4159 z" /><path
       id="path1029"
       style="font-style:normal;font-variant:normal;font-weight:normal;font-stretch:normal;font-family:'Nokia Pure Headline Ultra Light';-inkscape-font-specification:'Nokia Pure Headline Ultra Light, ';fill:#001135;fill-opacity:1;stroke-width:1.28718"
       d="m 188.09838,86.270372 q -0.98024,-0.617189 -2.46876,-1.089156 -1.4522,-0.471968 -3.41268,-0.471968 -3.01334,0 -4.61076,1.452208 -1.56113,1.415903 -1.56113,3.70313 0,1.089156 0.25414,1.851566 0.25413,0.762409 0.87132,1.379597 0.61719,0.580883 1.59743,1.089156 1.01655,0.508273 2.50506,1.052851 l 2.17831,0.762409 q 3.12225,1.089156 4.46554,2.759195 1.3796,1.67004 1.3796,4.10249 0,1.3796 -0.50827,2.61397 -0.50828,1.23438 -1.52482,2.21462 -1.01655,0.94393 -2.57767,1.52482 -1.52482,0.54458 -3.59422,0.54458 -1.30698,0 -2.46875,-0.21784 -1.12546,-0.21783 -2.1057,-0.54457 -0.94394,-0.32675 -1.70634,-0.6898 -0.72611,-0.36305 -1.16177,-0.6535 l 0.65349,-1.34329 q 0.54458,0.32675 1.16177,0.6898 0.65349,0.36305 1.45221,0.65349 0.83502,0.29045 1.85156,0.50828 1.05285,0.18152 2.35984,0.18152 1.34329,0 2.54136,-0.29044 1.19808,-0.29044 2.10571,-0.90763 0.90763,-0.65349 1.4522,-1.67004 0.54458,-1.01654 0.54458,-2.46875 0,-2.17831 -1.30699,-3.521606 -1.30698,-1.343292 -3.81204,-2.142007 l -1.92418,-0.617188 q -3.12224,-1.052851 -4.68337,-2.613974 -1.52482,-1.561124 -1.52482,-4.247709 0,-1.234376 0.43567,-2.396143 0.43566,-1.198071 1.37959,-2.105701 0.94394,-0.943935 2.43245,-1.488513 1.48852,-0.580883 3.59422,-0.580883 0.76241,0 1.59743,0.14522 0.87132,0.108916 1.70634,0.326747 0.87132,0.217831 1.63373,0.544578 0.76241,0.290442 1.3796,0.653494 z" /><path
       id="path1031"
       style="font-style:normal;font-variant:normal;font-weight:normal;font-stretch:normal;font-family:'Nokia Pure Headline Ultra Light';-inkscape-font-specification:'Nokia Pure Headline Ultra Light, ';fill:#001135;fill-opacity:1;stroke-width:1.28718"
       d="m 193.03759,91.316794 h 1.3796 v 10.927866 q 0,3.34008 1.16177,4.71968 1.19807,1.37959 3.34007,1.37959 1.45221,0 2.68659,-0.65349 1.27068,-0.65349 2.17831,-1.70635 0.94394,-1.08915 1.45221,-2.46875 0.54458,-1.3796 0.54458,-2.86811 v -9.330436 h 1.37959 v 18.007376 h -1.37959 v -4.35662 q -0.94394,2.21462 -2.7592,3.44899 -1.81526,1.23438 -4.24771,1.23438 -2.8318,0 -4.28401,-1.77895 -1.45221,-1.77896 -1.45221,-5.26426 z" /><path
       id="path1033"
       style="font-style:normal;font-variant:normal;font-weight:normal;font-stretch:normal;font-family:'Nokia Pure Headline Ultra Light';-inkscape-font-specification:'Nokia Pure Headline Ultra Light, ';fill:#001135;fill-opacity:1;stroke-width:1.28718"
       d="m 226.0169,100.21157 q 0,-1.778957 -0.32675,-3.231165 -0.32674,-1.488513 -1.05285,-2.541363 -0.6898,-1.052851 -1.77895,-1.633734 -1.08916,-0.617189 -2.61398,-0.617189 -1.4522,0 -2.65028,0.580883 -1.19807,0.544578 -2.06939,1.561124 -0.87133,1.016545 -1.34329,2.396143 -0.47197,1.343292 -0.47197,2.977026 v 5.300555 q 0.25413,0.43567 0.76241,1.01655 0.54457,0.54458 1.30698,1.05285 0.79872,0.47197 1.81526,0.83502 1.01655,0.32675 2.28723,0.32675 1.30699,0 2.39614,-0.47197 1.12547,-0.50827 1.96049,-1.48851 0.83501,-1.01655 1.30698,-2.50506 0.47197,-1.52482 0.47197,-3.55791 z m 1.45221,0 q 0,2.61397 -0.72611,4.39293 -0.68979,1.77895 -1.77895,2.86811 -1.08916,1.08915 -2.43245,1.59743 -1.30699,0.47196 -2.57767,0.47196 -1.52482,0 -3.12225,-0.50827 -1.59742,-0.50827 -3.12224,-2.03309 v 2.32353 h -1.3796 V 82.095274 h 1.3796 v 12.85204 q 1.01654,-2.178312 2.68658,-3.122247 1.67004,-0.98024 3.99357,-0.98024 1.74265,0 3.04964,0.689799 1.30699,0.689798 2.21462,1.924175 0.90763,1.234377 1.34329,2.977026 0.47197,1.706345 0.47197,3.775743 z" /><path
       id="path1035"
       style="font-style:normal;font-variant:normal;font-weight:normal;font-stretch:normal;font-family:'Nokia Pure Headline Ultra Light';-inkscape-font-specification:'Nokia Pure Headline Ultra Light, ';fill:#001135;fill-opacity:1;stroke-width:1.28718"
       d="m 237.89437,99.630685 q 1.01655,0.181526 1.92418,0.544575 0.94393,0.32675 1.63373,0.90763 0.6898,0.58089 1.08916,1.41591 0.39936,0.83502 0.39936,1.99678 0,2.43245 -1.77896,3.81205 -1.74265,1.34329 -4.71967,1.34329 -2.25093,0 -3.84836,-0.54458 -1.59742,-0.58088 -2.39614,-1.08915 l 0.58088,-1.19808 q 0.79872,0.50828 2.25093,1.01655 1.4522,0.50827 3.37638,0.50827 1.4159,0 2.39614,-0.29044 0.98024,-0.29044 1.56113,-0.79871 0.61719,-0.50828 0.87132,-1.19807 0.29044,-0.6898 0.29044,-1.45221 0,-0.6535 -0.18152,-1.19807 -0.14522,-0.58089 -0.58089,-1.05286 -0.43566,-0.47196 -1.23437,-0.79871 -0.76241,-0.36305 -1.99679,-0.58088 l -1.96048,-0.36305 q -2.65028,-0.47197 -3.88466,-1.561128 -1.23437,-1.089156 -1.23437,-3.267468 0,-1.234377 0.47197,-2.142007 0.50827,-0.943935 1.34329,-1.561123 0.83502,-0.617189 1.92417,-0.90763 1.12546,-0.326747 2.35984,-0.326747 1.81526,0 3.08594,0.399357 1.30699,0.399357 2.25093,0.90763 l -0.50828,1.234377 q -0.83502,-0.435663 -2.06939,-0.83502 -1.19808,-0.399357 -2.7955,-0.399357 -2.17832,0 -3.41269,1.016546 -1.23438,0.98024 -1.23438,2.722889 0,0.726104 0.18153,1.270682 0.21783,0.508273 0.7261,0.90763 0.50827,0.399358 1.30699,0.689799 0.83502,0.290442 2.1057,0.544578 z" /><path
       id="path1037"
       style="font-style:normal;font-variant:normal;font-weight:normal;font-stretch:normal;font-family:'Nokia Pure Headline Ultra Light';-inkscape-font-specification:'Nokia Pure Headline Ultra Light, ';fill:#001135;fill-opacity:1;stroke-width:1.28718"
       d="m 247.22877,100.28418 q 0,2.1057 0.47197,3.63052 0.50827,1.52482 1.34329,2.50506 0.87132,0.98024 2.03309,1.45221 1.19807,0.47196 2.57767,0.47196 1.74265,0 2.72289,-0.36305 1.01654,-0.36305 1.85156,-0.76241 l 0.50828,1.05285 q -0.72611,0.50827 -1.88787,0.94394 -1.16177,0.43566 -3.19486,0.43566 -3.73944,0 -5.80883,-2.39614 -2.0694,-2.39615 -2.0694,-6.9706 0,-2.069398 0.54458,-3.812047 0.54458,-1.74265 1.56112,-2.977027 1.05285,-1.270682 2.50506,-1.96048 1.45221,-0.689799 3.26747,-0.689799 0.98024,0 1.74265,0.145221 0.76241,0.108915 1.34329,0.326746 0.61719,0.217832 1.08916,0.508273 0.47196,0.290442 0.87132,0.617189 l -0.6898,1.125461 q -0.6898,-0.471968 -1.70634,-0.943935 -1.01655,-0.471968 -2.57767,-0.471968 -2.90442,0 -4.71968,2.069396 -1.77895,2.069397 -1.77895,6.06297 z" /><path
       id="path1039"
       style="font-style:normal;font-variant:normal;font-weight:normal;font-stretch:normal;font-family:'Nokia Pure Headline Ultra Light';-inkscape-font-specification:'Nokia Pure Headline Ultra Light, ';fill:#001135;fill-opacity:1;stroke-width:1.28718"
       d="m 263.87639,91.316794 v 4.284014 q 0.83502,-2.142007 2.50506,-3.267468 1.67004,-1.161766 4.02988,-1.161766 0.21783,0 0.58088,0.0363 0.36306,0 0.61719,0.07261 l -0.14522,1.343293 q -0.25414,-0.03631 -0.65349,-0.03631 -0.36305,-0.0363 -0.54458,-0.0363 -1.59743,0 -2.7955,0.653494 -1.19807,0.617188 -1.99679,1.706344 -0.79871,1.089156 -1.23437,2.541364 -0.39936,1.452208 -0.39936,3.049637 v 8.82216 h -1.3796 V 91.316794 Z" /><path
       id="path1041"
       style="font-style:normal;font-variant:normal;font-weight:normal;font-stretch:normal;font-family:'Nokia Pure Headline Ultra Light';-inkscape-font-specification:'Nokia Pure Headline Ultra Light, ';fill:#001135;fill-opacity:1;stroke-width:1.28718"
       d="m 274.41286,91.316794 h 1.3796 v 18.007376 h -1.3796 z m 0.6898,-4.61076 q -0.54458,0 -0.94394,-0.363052 -0.39935,-0.363052 -0.39935,-1.089156 0,-0.653493 0.39935,-1.052851 0.39936,-0.399357 0.94394,-0.399357 0.54458,0 0.94394,0.399357 0.39935,0.399358 0.39935,1.052851 0,0.726104 -0.39935,1.089156 -0.39936,0.363052 -0.94394,0.363052 z" /><path
       id="path1043"
       style="font-style:normal;font-variant:normal;font-weight:normal;font-stretch:normal;font-family:'Nokia Pure Headline Ultra Light';-inkscape-font-specification:'Nokia Pure Headline Ultra Light, ';fill:#001135;fill-opacity:1;stroke-width:1.28718"
       d="m 294.79823,100.21157 q 0,-1.778957 -0.32675,-3.231165 -0.32675,-1.488513 -1.05285,-2.541363 -0.6898,-1.052851 -1.77896,-1.633734 -1.08915,-0.617189 -2.61397,-0.617189 -1.45221,0 -2.65028,0.580883 -1.19807,0.544578 -2.0694,1.561124 -0.87132,1.016545 -1.34329,2.396143 -0.47197,1.343292 -0.47197,2.977026 v 5.300555 q 0.25414,0.43567 0.76241,1.01655 0.54458,0.54458 1.30699,1.05285 0.79871,0.47197 1.81526,0.83502 1.01655,0.32675 2.28723,0.32675 1.30698,0 2.39614,-0.47197 1.12546,-0.50827 1.96048,-1.48851 0.83502,-1.01655 1.30699,-2.50506 0.47197,-1.52482 0.47197,-3.55791 z m 1.4522,0 q 0,2.61397 -0.7261,4.39293 -0.6898,1.77895 -1.77895,2.86811 -1.08916,1.08915 -2.43245,1.59743 -1.30699,0.47196 -2.57767,0.47196 -1.52482,0 -3.12225,-0.50827 -1.59743,-0.50827 -3.12225,-2.03309 v 2.32353 h -1.37959 V 82.095274 h 1.37959 v 12.85204 q 1.01655,-2.178312 2.68659,-3.122247 1.67004,-0.98024 3.99357,-0.98024 1.74265,0 3.04964,0.689799 1.30698,0.689798 2.21461,1.924175 0.90763,1.234377 1.3433,2.977026 0.47196,1.706345 0.47196,3.775743 z" /><path
       id="path1045"
       style="font-style:normal;font-variant:normal;font-weight:normal;font-stretch:normal;font-family:'Nokia Pure Headline Ultra Light';-inkscape-font-specification:'Nokia Pure Headline Ultra Light, ';fill:#001135;fill-opacity:1;stroke-width:1.28718"
       d="m 313.21064,108.34393 q -0.6535,0.43566 -2.0331,0.87133 -1.37959,0.43566 -3.19485,0.43566 -2.1057,0 -3.66683,-0.65349 -1.56112,-0.6898 -2.61397,-1.88787 -1.01655,-1.23438 -1.52482,-2.94073 -0.50827,-1.74264 -0.50827,-3.88465 0,-2.178313 0.54457,-3.920963 0.54458,-1.742649 1.52482,-2.940721 0.98024,-1.234377 2.39615,-1.88787 1.4159,-0.689799 3.15855,-0.689799 1.59743,0 2.90441,0.544578 1.3433,0.544578 2.28723,1.706344 0.98024,1.125461 1.52482,2.977026 0.54458,1.81526 0.54458,4.356625 v 0.32675 H 301.0847 q 0.18153,3.59421 1.77895,5.591 1.59743,1.99678 5.19165,1.99678 1.48851,0 2.68658,-0.32674 1.19807,-0.36306 2.03309,-0.76241 z m -0.10892,-8.858466 q -0.0726,-1.706344 -0.43566,-3.049637 -0.36305,-1.379597 -1.08916,-2.323532 -0.6898,-0.943935 -1.77895,-1.452208 -1.05285,-0.508273 -2.54137,-0.508273 -2.72289,0 -4.35662,1.924176 -1.59743,1.924175 -1.81526,5.409474 z" /><path
       id="path1047"
       style="font-style:normal;font-variant:normal;font-weight:normal;font-stretch:normal;font-family:'Nokia Pure Headline Ultra Light';-inkscape-font-specification:'Nokia Pure Headline Ultra Light, ';fill:#001135;fill-opacity:1;stroke-width:1.28718"
       d="m 327.92672,111.03052 h -1.4159 l 11.32722,-28.935246 h 1.4159 z" /><path
       id="path1049"
       style="font-style:normal;font-variant:normal;font-weight:normal;font-stretch:normal;font-family:'Nokia Pure Headline Ultra Light';-inkscape-font-specification:'Nokia Pure Headline Ultra Light, ';fill:#001135;fill-opacity:1;stroke-width:1.28718"
       d="m 362.14039,109.72353 q -2.7955,0 -4.79229,-0.94394 -1.99678,-0.98024 -3.26747,-2.68658 -1.27068,-1.70634 -1.88787,-4.06618 -0.61719,-2.35984 -0.61719,-5.191645 0,-3.049637 0.6535,-5.518391 0.6898,-2.505058 2.03309,-4.247708 1.34329,-1.778955 3.30377,-2.72289 1.96048,-0.98024 4.57446,-0.98024 1.56112,0 2.72289,0.290442 1.16176,0.254136 1.99678,0.653493 0.87133,0.363052 1.45221,0.798714 0.58088,0.435663 0.90763,0.726104 l -0.87132,1.161767 q -1.01655,-0.90763 -2.50506,-1.561124 -1.48852,-0.689799 -3.70313,-0.689799 -4.1388,0 -6.57124,3.049637 -2.43245,3.013332 -2.43245,9.039995 0,5.881445 2.39614,8.713245 2.43245,2.7955 6.60755,2.7955 1.16176,0 2.1057,-0.21783 0.94393,-0.21783 1.70634,-0.54458 0.76241,-0.32674 1.3433,-0.7261 0.58088,-0.39936 1.01654,-0.76241 l 0.83502,1.12546 q -1.19807,1.08916 -2.90442,1.81526 -1.70634,0.6898 -4.10248,0.6898 z" /><path
       id="path1051"
       style="font-style:normal;font-variant:normal;font-weight:normal;font-stretch:normal;font-family:'Nokia Pure Headline Ultra Light';-inkscape-font-specification:'Nokia Pure Headline Ultra Light, ';fill:#001135;fill-opacity:1;stroke-width:1.28718"
       d="m 371.42829,100.24787 q 0,-2.033088 0.50827,-3.739432 0.50827,-1.74265 1.48851,-2.977026 1.01655,-1.270682 2.54137,-1.960481 1.52482,-0.726104 3.55791,-0.726104 2.1057,0 3.63052,0.689799 1.52482,0.689798 2.50506,1.96048 1.01654,1.234377 1.48851,2.977027 0.47197,1.706344 0.47197,3.775737 0,2.03309 -0.50828,3.73944 -0.50827,1.70634 -1.52482,2.97703 -1.01654,1.27068 -2.54136,1.99678 -1.52482,0.6898 -3.5216,0.6898 -2.0694,0 -3.59422,-0.7261 -1.52482,-0.72611 -2.54136,-1.96048 -0.98024,-1.27069 -1.48851,-2.97703 -0.47197,-1.74265 -0.47197,-3.73944 z m 1.45221,0 q 0,3.81205 1.59742,5.95406 1.59743,2.142 5.01012,2.142 1.74265,0 2.97703,-0.58088 1.27068,-0.58088 2.06939,-1.63373 0.83502,-1.05286 1.23438,-2.54137 0.39936,-1.48851 0.39936,-3.34008 0,-3.775737 -1.59743,-5.917744 -1.59743,-2.178312 -5.04642,-2.178312 -1.70635,0 -2.97703,0.580883 -1.23438,0.580883 -2.0694,1.633734 -0.79871,1.052851 -1.19807,2.541364 -0.39935,1.488513 -0.39935,3.340075 z" /><path
       id="path1053"
       style="font-style:normal;font-variant:normal;font-weight:normal;font-stretch:normal;font-family:'Nokia Pure Headline Ultra Light';-inkscape-font-specification:'Nokia Pure Headline Ultra Light, ';fill:#001135;fill-opacity:1;stroke-width:1.28718"
       d="m 392.08481,82.095274 h 1.3796 v 27.228896 h -1.3796 z" /><path
       id="path1055"
       style="font-style:normal;font-variant:normal;font-weight:normal;font-stretch:normal;font-family:'Nokia Pure Headline Ultra Light';-inkscape-font-specification:'Nokia Pure Headline Ultra Light, ';fill:#001135;fill-opacity:1;stroke-width:1.28718"
       d="m 398.82114,82.095274 h 1.37959 v 27.228896 h -1.37959 z" /><path
       id="path1057"
       style="font-style:normal;font-variant:normal;font-weight:normal;font-stretch:normal;font-family:'Nokia Pure Headline Ultra Light';-inkscape-font-specification:'Nokia Pure Headline Ultra Light, ';fill:#001135;fill-opacity:1;stroke-width:1.28718"
       d="m 418.15534,108.34393 q -0.6535,0.43566 -2.03309,0.87133 -1.3796,0.43566 -3.19486,0.43566 -2.1057,0 -3.66683,-0.65349 -1.56112,-0.6898 -2.61397,-1.88787 -1.01655,-1.23438 -1.52482,-2.94073 -0.50827,-1.74264 -0.50827,-3.88465 0,-2.178313 0.54458,-3.920963 0.54457,-1.742649 1.52481,-2.940721 0.98025,-1.234377 2.39615,-1.88787 1.4159,-0.689799 3.15855,-0.689799 1.59743,0 2.90442,0.544578 1.34329,0.544578 2.28722,1.706344 0.98024,1.125461 1.52482,2.977026 0.54458,1.81526 0.54458,4.356625 v 0.32675 H 406.0294 q 0.18153,3.59421 1.77896,5.591 1.59742,1.99678 5.19164,1.99678 1.48851,0 2.68658,-0.32674 1.19808,-0.36306 2.0331,-0.76241 z m -0.10892,-8.858466 q -0.0726,-1.706344 -0.43566,-3.049637 -0.36305,-1.379597 -1.08916,-2.323532 -0.68979,-0.943935 -1.77895,-1.452208 -1.05285,-0.508273 -2.54136,-0.508273 -2.72289,0 -4.35663,1.924176 -1.59743,1.924175 -1.81526,5.409474 z" /><path
       id="path1059"
       style="font-style:normal;font-variant:normal;font-weight:normal;font-stretch:normal;font-family:'Nokia Pure Headline Ultra Light';-inkscape-font-specification:'Nokia Pure Headline Ultra Light, ';fill:#001135;fill-opacity:1;stroke-width:1.28718"
       d="m 424.07479,100.28418 q 0,2.1057 0.47197,3.63052 0.50827,1.52482 1.34329,2.50506 0.87133,0.98024 2.03309,1.45221 1.19807,0.47196 2.57767,0.47196 1.74265,0 2.72289,-0.36305 1.01655,-0.36305 1.85157,-0.76241 l 0.50827,1.05285 q -0.7261,0.50827 -1.88787,0.94394 -1.16177,0.43566 -3.19486,0.43566 -3.73943,0 -5.80883,-2.39614 -2.0694,-2.39615 -2.0694,-6.9706 0,-2.069398 0.54458,-3.812047 0.54458,-1.74265 1.56113,-2.977027 1.05285,-1.270682 2.50505,-1.96048 1.45221,-0.689799 3.26747,-0.689799 0.98024,0 1.74265,0.145221 0.76241,0.108915 1.34329,0.326746 0.61719,0.217832 1.08916,0.508273 0.47197,0.290442 0.87132,0.617189 l -0.68979,1.125461 q -0.6898,-0.471968 -1.70635,-0.943935 -1.01654,-0.471968 -2.57767,-0.471968 -2.90441,0 -4.71967,2.069396 -1.77896,2.069397 -1.77896,6.06297 z" /><path
       id="path1061"
       style="font-style:normal;font-variant:normal;font-weight:normal;font-stretch:normal;font-family:'Nokia Pure Headline Ultra Light';-inkscape-font-specification:'Nokia Pure Headline Ultra Light, ';fill:#001135;fill-opacity:1;stroke-width:1.28718"
       d="m 440.90396,92.587476 h -3.77574 v -1.270682 h 3.77574 V 85.90732 l 1.3796,-0.363052 v 5.772526 h 5.51839 v 1.270682 h -5.51839 v 11.254614 q 0,1.34329 0.25413,2.21462 0.25414,0.83501 0.76241,1.34329 0.50828,0.47197 1.27068,0.65349 0.79872,0.18153 1.85157,0.18153 0.54458,0 1.45221,-0.18153 l 0.18152,1.16177 q -0.29044,0.10891 -0.94393,0.18152 -0.61719,0.10892 -1.34329,0.10892 -1.3796,0 -2.32354,-0.36305 -0.90763,-0.39936 -1.48851,-1.08916 -0.54458,-0.6898 -0.79871,-1.63373 -0.25414,-0.94394 -0.25414,-2.03309 z" /></g></g></g>
</g>
</svg>
